<svg preserveAspectRatio="xMidYMid meet" data-bbox="0 0 245 155" xmlns="http://www.w3.org/2000/svg" viewBox="0 0 245 155" height="155" width="245" data-type="color" role="img" aria-label="undraw_experience_design_re_dmqq 1"><defs><style>#comp-lzazap0h svg [data-color="1"] {fill: #f2f2f2;}</style></defs>
    <g>
        <g clip-path="url(#802b3ee1-c929-475a-94eb-27749ce7da83_comp-lzazap0h)">
            <path fill="#F2F2F2" d="M205.138 12.135H.228c.29-1.64.855-3.193 1.645-4.599C4.396 3.043 9.207 0 14.72 0h175.926c5.51 0 10.324 3.043 12.844 7.536a14.5 14.5 0 0 1 1.648 4.599" data-color="1"></path>
            <path fill="#3F3D56" d="M245 154.433c0 .225-.18.405-.405.405h-84.202a.404.404 0 0 1-.297-.68h30.55q.974-.001 1.914-.13h52.035c.225 0 .405.181.405.405" data-color="2"></path>
            <path fill="#E6E6E6" d="M150.575 71.87H54.788c-.89 0-1.614-.917-1.614-2.043s.724-2.043 1.614-2.043h95.787c.891 0 1.615.917 1.615 2.043s-.724 2.042-1.615 2.042" data-color="3"></path>
            <path fill="#3F3D56" d="M205.138 12.135a14.6 14.6 0 0 0-1.648-4.599C200.97 3.043 196.155 0 190.646 0H14.72C9.207 0 4.396 3.043 1.873 7.536a14.6 14.6 0 0 0-1.645 4.599A14.6 14.6 0 0 0 0 14.715v125.408c0 8.115 6.602 14.715 14.72 14.715h175.926c1.682 0 3.303-.286 4.811-.81 5.762-1.994 9.909-7.475 9.909-13.905V14.715c0-.878-.079-1.743-.228-2.58m-.453 127.988c0 7.101-5.278 12.973-12.125 13.905a14 14 0 0 1-1.914.13H35.63c-19.303 0-34.95-15.645-34.95-34.941V14.715a14 14 0 0 1 1.975-7.179A14.03 14.03 0 0 1 14.72.681h175.926a14.03 14.03 0 0 1 12.064 6.855 13.9 13.9 0 0 1 1.736 4.599q.237 1.256.239 2.58z" data-color="2"></path>
            <path fill="#FFB6B6" d="m196.102 73.55-1.152-4.223 5.185-1.92.576 3.84z" data-color="4"></path>
            <path fill="#000000" d="m196.102 73.55-1.152-4.223 3.054-1.287-.949 4.978z" opacity=".1" data-color="5"></path>
            <path fill="#FFB6B6" d="M180.924 109.747c-.991-.59-1.043-2.328-.117-3.884.406-.681.931-1.214 1.477-1.549l.544-.888 6.879-12.327s3.011-11.627 4.237-13.032c1.225-1.406 2.998-1.075 2.998-1.075l1.572 1.396-5.611 16.467-6.924 9.748-.928 1.357c-.034.639-.252 1.355-.657 2.036-.926 1.556-2.48 2.34-3.47 1.751" data-color="4"></path>
            <path fill="#6C63FF" d="M195.819 72.344s2.188-.084 3.568 1.615c1.381 1.699-5.851 20.848-5.851 20.848l-5.89-.209z" data-color="6"></path>
            <path fill="#FFB6B6" d="M196.391 70a5.376 5.376 0 0 0 5.377-5.376 5.376 5.376 0 0 0-5.377-5.375 5.377 5.377 0 0 0-5.378 5.375 5.377 5.377 0 0 0 5.378 5.375" data-color="4"></path>
            <path fill="#FFB6B6" d="m183.812 142.661-3.648 9.022-2.113-2.111-.768-4.032 3.073-3.839z" data-color="4"></path>
            <path fill="#FFB6B6" d="m217.995 139.397 3.649 4.223-1.729 3.456-3.84-.576-1.921-5.375z" data-color="4"></path>
            <path fill="#FFB6B6" d="m193.702 89.004-.48 7.775 11.906-2.111-.768-4.8z" data-color="4"></path>
            <path fill="#2F2E41" d="m193.126 96.875 12.002-3.935s4.417 8.831-.384 14.398-20.74 37.242-20.74 37.242l-4.801-2.303 6.913-20.157 7.682-18.622z" data-color="7"></path>
            <path fill="#2F2E41" d="m204.744 104.074 4.609 20.157 9.602 15.55-4.993 2.88-13.443-18.43-4.417-14.206z" data-color="7"></path>
            <path fill="#2F2E41" d="M175.555 144.772h-3.326s-3.881-1.535-4.791 0c-.909 1.536 4.058 5.892 4.058 5.892s6.939 3.899 7.899 3.707 1.345-2.496 1.345-2.496l1.152-2.687-1.729.576s-2.304-1.344-1.728-3.648z" data-color="7"></path>
            <path fill="#2F2E41" d="M220.875 144.196v-1.919l2.233 1.919s3.72 1.344.84 4.224-6.53 5.951-6.53 5.951-5.761 1.536-6.145-.192 0-2.427 0-2.427l2.113-1.028 1.92-4.992 3.073.384z" data-color="7"></path>
            <path fill="#2F2E41" d="m198.023 65.68-1.728-.192-3.169-3.168s-2.881 1.536-2.881.384c0-5.375 3.265-5.183 5.954-5.567s2.4-.48 3.264.96c.395.658 1.824 1.056 1.824 1.056s2.689-3.648 4.033.767c1.344 4.416-.384 18.046.96 19.198 1.345 1.152-5.519 2.302-4.776-2.209.744-4.51 2.088-11.421 1.32-12.957s-.96-1.152-.96-1.152c.952-.388 1.573 6.455-2.016 6.79l-.097-3.334s-.576-1.728-1.728-.576" data-color="7"></path>
            <path fill="#6C63FF" d="m195.622 72.303 5.761-2.304 7.682 23.037-15.805-.576-1.423-6.875s-1.39-3.579-.237-5.69c1.152-2.112 4.022-7.592 4.022-7.592" data-color="6"></path>
            <path fill="#FFB6B6" d="M210.614 110.892c-1.149.099-2.205-1.284-2.36-3.087-.068-.79.048-1.529.297-2.119l-.076-1.039-1.6-14.025s-2.979-11.472-2.803-13.328c.176-1.857.454-2.35.454-2.35l2.092.218 5.044 16.65.059 11.955.037 1.643c.346.539.586 1.248.654 2.038.155 1.803-.65 3.345-1.798 3.444" data-color="4"></path>
            <path fill="#6C63FF" d="M200.903 71.823s1.729-1.344 3.841-.768 7.404 20.349 7.404 20.349l-4.907 3.264z" data-color="6"></path>
            <path fill="#6C63FF" d="M100.858 105.057H77.821a2.553 2.553 0 0 1-2.55-2.549v-2.303a2.55 2.55 0 0 1 2.55-2.549h23.037a2.55 2.55 0 0 1 2.55 2.549v2.303a2.553 2.553 0 0 1-2.55 2.549" data-color="6"></path>
            <path fill="#6C63FF" d="M189.388 29.788h-23.036a2.55 2.55 0 0 1-2.55-2.55v-2.303a2.55 2.55 0 0 1 2.55-2.548h23.036a2.55 2.55 0 0 1 2.55 2.548v2.304a2.55 2.55 0 0 1-2.55 2.549" data-color="6"></path>
            <path fill="#6C63FF" d="M135.033 105.227h-23.037a2.723 2.723 0 0 1-2.72-2.719v-2.303c0-1.5 1.221-2.719 2.72-2.719h23.037c1.5 0 2.72 1.22 2.72 2.719v2.303a2.723 2.723 0 0 1-2.72 2.719m-23.037-7.06a2.04 2.04 0 0 0-2.039 2.038v2.303a2.04 2.04 0 0 0 2.039 2.038h23.037a2.04 2.04 0 0 0 2.039-2.038v-2.303a2.04 2.04 0 0 0-2.039-2.038z" data-color="6"></path>
            <path fill="#E6E6E6" d="M163.29 61.317H42.072a2.045 2.045 0 0 1-2.043-2.042c0-1.126.917-2.042 2.043-2.042H163.29c1.127 0 2.043.916 2.043 2.042a2.045 2.045 0 0 1-2.043 2.042" data-color="3"></path>
            <path fill="#E6E6E6" d="M34.353 28.13H19.03a2.045 2.045 0 0 1-2.043-2.043c0-1.126.917-2.042 2.043-2.042h15.323c1.126 0 2.043.916 2.043 2.042a2.045 2.045 0 0 1-2.043 2.043" data-color="3"></path>
            <path fill="#E6E6E6" d="M125.948 28.13h-15.323a2.045 2.045 0 0 1-2.043-2.043c0-1.126.916-2.042 2.043-2.042h15.323c1.126 0 2.043.916 2.043 2.042a2.045 2.045 0 0 1-2.043 2.043" data-color="3"></path>
            <path fill="#E6E6E6" d="M154.89 28.13h-15.322a2.045 2.045 0 0 1-2.043-2.043c0-1.126.916-2.042 2.043-2.042h15.322c1.127 0 2.043.916 2.043 2.042a2.045 2.045 0 0 1-2.043 2.043" data-color="3"></path>
            <path fill="#E6E6E6" d="M136.391 82.421h-67.42a2.045 2.045 0 0 1-2.042-2.042c0-1.126.916-2.043 2.043-2.043h67.419c1.126 0 2.043.917 2.043 2.043a2.045 2.045 0 0 1-2.043 2.042" data-color="3"></path>
            <path fill="#E6E6E6" d="M139.329 127.099H66.034a1.237 1.237 0 0 1-1.235-1.235c0-.681.554-1.235 1.235-1.235h73.295c.681 0 1.235.554 1.235 1.235s-.554 1.235-1.235 1.235" data-color="3"></path>
            <path fill="#ffffff" d="M140.011 7.283H66.717a1.236 1.236 0 0 1-1.236-1.235c0-.681.554-1.235 1.236-1.235h73.294c.681 0 1.236.554 1.236 1.235s-.555 1.235-1.236 1.235" data-color="8"></path>
        </g>
        <defs fill="none">
            <clipPath id="802b3ee1-c929-475a-94eb-27749ce7da83_comp-lzazap0h">
                <path fill="#ffffff" d="M245 0v155H0V0z"></path>
            </clipPath>
        </defs>
    </g>
</svg>