<svg preserveAspectRatio="xMidYMid meet" data-bbox="0 0 247 153" xmlns="http://www.w3.org/2000/svg" viewBox="0 0 247 153" height="153" width="247" data-type="color" role="img" aria-label="undraw_term_sheet_re_ju7s 2"><defs><style>#comp-lzazap1m svg [data-color="1"] {fill: #ffb6b6;}</style></defs>
    <g>
        <g clip-path="url(#cf4bd2b4-ecf7-479b-a637-75cf756814aa_comp-lzazap1m)">
            <path fill="#FFB6B6" d="m202.432 146.31-2.568-.601 1.553-11.824 3.79.888z" data-color="1"></path>
            <path fill="#2F2E41" d="M192.294 149.359c-.112.431.103.86.481.958l5.066 1.313s1.019-1.873 3.275-2.207l-.604 2.899 2.614.678.879-4.686s1.339-2.282.215-3.918c-1.125-1.636.005-1.155.005-1.155l.169-2.998-4.069-.56-1.191 4.466-3.07 3.943-3.172.659c-.282.058-.517.297-.598.608" data-color="2"></path>
            <path fill="#FFB6B6" d="m227.05 143.521-2.342 1.211-6.52-9.989 3.457-1.788z" data-color="1"></path>
            <path fill="#2F2E41" d="M221.335 152.424c.196.4.638.586.988.415l4.704-2.294s-.446-2.085 1.05-3.805l1.43 2.595 2.426-1.184-2.384-4.131s-.469-2.603-2.388-3.115c-1.919-.511-.748-.881-.748-.881l-1.824-2.387-3.455 2.219 2.003 4.166.236 4.99-1.98 2.561c-.176.228-.199.563-.058.851" data-color="2"></path>
            <path fill="#ffffff" d="M89.696 99.607h68.067c.857 0 1.552-.694 1.552-1.55V1.84c0-.856-.695-1.55-1.552-1.55H89.696a1.55 1.55 0 0 0-1.551 1.55v96.217c0 .856.694 1.55 1.551 1.55" data-color="3"></path>
            <path fill="#E6E6E6" d="M159.605 99.897h-71.75V0h71.75zm-71.17-.58h70.589V.58H88.435z" data-color="4"></path>
            <path fill="#E6E6E6" d="M143.48 16.003a.5.5 0 0 1 .5.5v.999a.5.5 0 0 1-.5.5h-39.501a.5.5 0 0 1-.5-.5v-1a.5.5 0 0 1 .5-.499z" data-color="4"></path>
            <path fill="#E6E6E6" d="M143.48 20.748a.5.5 0 0 1 .5.5v.999a.5.5 0 0 1-.5.5h-39.501a.5.5 0 0 1-.5-.5v-1a.5.5 0 0 1 .5-.499z" data-color="4"></path>
            <path fill="#6C63FF" d="M143.48 25.493a.5.5 0 0 1 .5.5v1a.5.5 0 0 1-.5.499h-39.501a.5.5 0 0 1-.5-.5v-.999a.5.5 0 0 1 .5-.5z" data-color="5"></path>
            <path fill="#2F2E41" d="M216.186 37.943h13.122a3.8 3.8 0 0 1 .381-1.782 4.4 4.4 0 0 0 .398 1.782h.596a1.653 1.653 0 0 0 1.651-1.65v-8.518c-.001-4.17-3.57-10.422-7.449-7.806-.125-.006-2.091-.876-2.216-.876-3.412.003-4.585 3.079-5.616 6.328-1.174-.54-1.983 1.716-2.568 5.687a77 77 0 0 0-.459 3.887 2.268 2.268 0 0 0 2.161 2.949z" data-color="2"></path>
            <path fill="#FFB6B6" d="M190.438 86.638c-.65 1.54-.382 3.124.599 3.538s2.304-.5 2.955-2.041c.268-.612.386-1.28.343-1.947l2.674-6.561-3.109-1.188-2.307 6.595a4.2 4.2 0 0 0-1.156 1.603z" data-color="1"></path>
            <path fill="#6C63FF" d="m219.188 35.06 6.272 1.31-.962 2.883 1.924 22.049-3.207 7.1-19.56-1.602 4.81-9.61s-1.924-8.008.641-9.61 6.734-9.61 6.734-9.61z" data-color="5"></path>
            <path fill="#2F2E41" d="m225.034 37.645 5.556 2.247-1.924 28.188 4.169 24.345-13.468 2.242s1.604-53.814 2.565-54.775c.962-.96 3.102-2.248 3.102-2.248z" data-color="2"></path>
            <path fill="#2F2E41" d="M214.152 41.16s-3.615-2.284-5.568-.592-16.991 42.588-16.991 42.588l4.056 1.76 9.302-19.484z" data-color="2"></path>
            <path fill="#2F2E41" d="m203.796 110.066-3.667 28.165 5.13.321s2.668-7.272 5.711-15.837c.648-1.816 1.311-3.69 1.969-5.567.712-2.037 1.42-4.075 2.094-6.041 1.664-4.85 3.123-9.264 3.956-12.147q.219-.76.379-1.367c2.243-8.61 3.526-31.112 3.526-31.112l-18.597-1.601-.199.246-3.969 4.956.186 1.047 4.944 27.704z" data-color="2"></path>
            <path fill="#2F2E41" d="m205.258 98.833-1.462 11.234 6.577 11.566.596 1.083 9.055 16.438 4.473-2.533s-5.82-13.361-9.466-25.514a108 108 0 0 1-1.115-3.946c-.991-3.771.631-10.65-.004-12.547-2.145-6.4-9.135-19.204-12.38-25.004l-1.219 1.519z" data-color="2"></path>
            <path fill="#2F2E41" d="m215.921 37.728-6.493 2.486-16.995 49.65 10.261 1.601 4.81-28.828z" data-color="2"></path>
            <path fill="#FFB6B6" d="M232.158 91.32c.165 1.664 1.158 2.928 2.218 2.823 1.06-.106 1.785-1.54 1.62-3.204a4.2 4.2 0 0 0-.629-1.873l-.789-7.04-3.3.44 1.128 6.894a4.2 4.2 0 0 0-.248 1.96" data-color="1"></path>
            <path fill="#2F2E41" d="M228.345 39.894s4.168-.961 5.451 1.281 1.924 45.806 1.924 45.806l-4.411.32-2.323-21.46z" data-color="2"></path>
            <path fill="#FFB6B6" d="M223.025 34.283a6.66 6.66 0 0 0 6.665-6.659 6.66 6.66 0 0 0-6.665-6.658 6.663 6.663 0 0 0-6.666 6.658 6.663 6.663 0 0 0 6.666 6.659" data-color="1"></path>
            <path fill="#2F2E41" d="M225.7 37.942h3.292c.167 0 .31-.129.317-.295l.001-.019c.018-.348.507-.406.62-.077q.069.2.156.391h.324V27.677a3.19 3.19 0 0 0-3.191-3.188 3.19 3.19 0 0 0-3.121 2.52s-2.237 2.74-.918 4.282c1.318 1.54-.6 2.795-.6 2.795a3.19 3.19 0 0 0 3.12 3.856" data-color="2"></path>
            <path fill="#F2F2F2" d="M116.561 49.9c.739-.476.894-1.495.378-2.205l-2.421-3.327a1.743 1.743 0 0 0-2.629-.221c-4.098 2.188-6.304 5.385-3.851 9.163q0 .947.138 1.886a1.743 1.743 0 0 0 2.269 1.447l3.958-1.285a1.554 1.554 0 0 0 .986-2.017c-.401-1.07-.236-2.534 1.172-3.441" data-color="6"></path>
            <path fill="#E6E6E6" d="M125.957 59.714c-1.139-.112-2.111.825-2.111 1.968v3.412q0 .132.02.264a1.743 1.743 0 0 0 1.988 1.456c5.548.683 9.339-1.727 9.567-7.014q.054-.112.093-.23a1.74 1.74 0 0 0-1.121-2.19l-3.314-1.075c-1.144-.37-2.332.37-2.532 1.555-.181 1.07-.888 2.022-2.59 1.854" data-color="4"></path>
            <path fill="#3F3D56" d="M105.465 63.05c1.151 6.82 7.142 9.408 13.391 9.817q.183.03.37.029a2.44 2.44 0 0 0 2.441-2.437v-5.704c0-1.595-1.309-2.838-2.906-2.854-1.544-.016-2.55-.746-2.964-2.086-.472-1.53-2.155-2.337-3.68-1.843l-5.213 1.692a2.44 2.44 0 0 0-1.497 1.374 2.42 2.42 0 0 0 .058 2.011" data-color="7"></path>
            <path fill="#6C63FF" d="M137.575 39.463a2.44 2.44 0 0 0-3.679.31l-4.632 6.368c-.592.814-.253 1.948.672 2.346 2.168.931 1.941 3.021 1.235 4.3-.346.628-.061 1.412.621 1.633l7.804 2.534a2.443 2.443 0 0 0 3.167-1.969 18 18 0 0 0 .202-2.696c1.32-4.918-.507-9.554-5.39-12.826" data-color="5"></path>
            <path fill="#E6E6E6" d="M124.174 46.847a1.954 1.954 0 0 0 2.539-.551l1.551-2.133c.301-.414.406-.939.286-1.436a1.71 1.71 0 0 0-.886-1.13c-3.651-3.295-7.973-3.497-11.637-.017a1.76 1.76 0 0 0-.917 1.156 1.73 1.73 0 0 0 .284 1.426l1.813 2.493c.622.856 1.829 1.08 2.687.46 1.247-.902 3.058-.955 4.28-.268" data-color="4"></path>
            <path fill="#E6E6E6" d="M247 152.493H0v.488h247z" data-color="4"></path>
            <path fill="#3F3D56" d="M103.733 89.819c.139-.59.793-.783 1.328-.761q.508.035 1.002.158c.343.077.684.168 1.022.265.622.176 1.236.39 1.867.529.53.144 1.087.153 1.621.023.513-.14.917-.536 1.068-1.046a1.05 1.05 0 0 0-.522-1.247.87.87 0 0 0-1.193.36 1.31 1.31 0 0 0 .382 1.462q.327.307.711.54c.259.176.547.305.851.38a1.23 1.23 0 0 0 1.35-.527.9.9 0 0 0 .101-.347c.016-.166-.243-.165-.258 0-.044.474-.6.695-1.016.644a2.1 2.1 0 0 1-.787-.306 4.6 4.6 0 0 1-.653-.46c-.352-.304-.683-.806-.446-1.282a.647.647 0 0 1 1.001-.133c.371.303.305.851.06 1.21a1.52 1.52 0 0 1-1.222.583 4.8 4.8 0 0 1-1.48-.232c-.597-.169-1.187-.358-1.786-.517-.34-.09-.683-.172-1.029-.236a3.4 3.4 0 0 0-.999-.069 1.35 1.35 0 0 0-1.224.939c-.037.163.212.232.251.07" data-color="7"></path>
            <path fill="#E6E6E6" d="M113.983 83.077c.078 0 .141.224.141.5v1c0 .275-.063.499-.141.499h-11.165c-.078 0-.141-.224-.141-.5v-1c0-.275.063-.499.141-.499z" data-color="4"></path>
            <path fill="#E6E6E6" d="M143.839 83.077c.078 0 .141.224.141.5v1c0 .275-.063.499-.141.499h-11.165c-.078 0-.141-.224-.141-.5v-1c0-.275.063-.499.141-.499z" data-color="4"></path>
            <path fill="#6C63FF" d="m138.868 88.705-2.216.732-1.108.366a2.5 2.5 0 0 1-1.079.198.73.73 0 0 1-.62-.44.64.64 0 0 1 .275-.649c.529-.402 1.197.007 1.572.423.458.51.718 1.167 1.148 1.7a4.1 4.1 0 0 0 1.42 1.13 3.3 3.3 0 0 0 3.413-.29c1.168-.901 1.287-2.462 1.293-3.823a.236.236 0 0 0-.245-.228.24.24 0 0 0-.229.228c-.005 1.234-.075 2.746-1.201 3.518-1.079.74-2.496.544-3.49-.244a5.7 5.7 0 0 1-1.257-1.605c-.355-.58-.795-1.14-1.463-1.365a1.32 1.32 0 0 0-1.578.551 1 1 0 0 0 .465 1.431c.774.369 1.659-.063 2.404-.309l2.623-.866c.288-.095.165-.552-.126-.456z" data-color="5"></path>
            <path fill="#E6E6E6" d="M40.385 143.806q-.043-.038-.066-.038a.99.99 0 0 0-.861.506l-3.893 7.223a1 1 0 0 0 .009.999c.183.311 8.78.423 8.78.423.362-.004 1.355-4.447-3.969-9.113" data-color="4"></path>
            <path fill="#FFB6B6" d="m25.506 151.169 2.955-.026 1.306-11.398-4.36.038z" data-color="1"></path>
            <path fill="#2F2E41" d="M35.63 151.014c.093.154.146.653.147.833a1 1 0 0 1-.994 1.01l-9.15.08a.684.684 0 0 1-.691-.677l-.003-.381s-.463-1.14.457-2.558c0 0 1.168 1.094 2.883-.65l.503-.928 3.718 2.667 2.05.234c.449.051.846-.016 1.08.37" data-color="2"></path>
            <path fill="#FFB6B6" d="m36.748 141.328 2.808.921 4.891-10.38-4.144-1.359z" data-color="1"></path>
            <path fill="#2F2E41" d="M46.387 144.42c.04.176-.07.666-.127.837-.172.525-.74.812-1.265.639l-8.695-2.852a.684.684 0 0 1-.437-.863l.12-.361s-.074-1.228 1.252-2.277c0 0 .756 1.41 2.94.306l.774-.718 2.668 3.716 1.867.877c.408.192.805.256.903.696" data-color="2"></path>
            <path fill="#2F2E41" d="m40.712 75.24 5.903 18.91 6.922 16.994-10.491 24.454-5.837-2.272 5.224-21.165-8.93-15.803-4.22 47.44-5.135-.614-6.675-56.827L18.52 74z" data-color="2"></path>
            <path fill="#E6E6E6" d="m34.672 32.184-6.379-1.538-1.76 4.175s-8.62 1.454-9.06 8.046c0 0-1.718 8.653-.618 11.07 1.1 2.418 3.81 10.965 3.81 10.965s-4.292 10.65-3.192 11.307c1.1.659 24.67 3.058 24.67 1.74s.27-16.981.27-16.981l-.924-23.731-5.937-2.197z" data-color="4"></path>
            <path fill="#FFB6B6" d="M33.592 31.122a6.425 6.425 0 0 0 6.428-6.421 6.425 6.425 0 0 0-6.428-6.421 6.425 6.425 0 0 0-6.428 6.42 6.425 6.425 0 0 0 6.428 6.422" data-color="1"></path>
            <path fill="#2F2E41" d="M29.336 25.655c.513.28.026 1.62.347 1.736.37.134 1.721-1.403 1.737-3.124.005-.52-.115-.77 0-1.388.151-.808.614-1.761 1.043-1.736.254.015.502.374.52.694.027.45-.41.626-.347.868.12.46 1.954.778 2.606 0 .512-.61.12-1.68.348-1.735.168-.04.35.549 1.042 1.214.261.251.65.624.869.521.317-.15.086-1.2.174-1.215.072-.011.117.728.52 1.389.519.849 1.587 1.503 2.086 1.214.305-.176.329-.668.347-1.04.038-.787 1.182-2.596.885-3.437-.603-1.712-1.634-.505-2.101-1.076-.632-.773-1.2-.357-2.259-1.215-1.035-.838-1.044-1.68-1.737-1.735-.624-.05-.846.615-1.563.52-.608-.08-.741-.596-1.217-.52-.435.069-.463.523-1.042.694-.37.109-.45-.049-.869 0-.87.101-1.454.893-1.563 1.041-.422.572-.258.813-.695 1.389-.377.496-1.212.285-1.526.533-1.026.81-1.467 2.304-1.475 4.006-.006 1.19.15 1.792.497 3.295.264 1.141 1.484 2.615 2.156 3.273.181.176.687.67 1.043.52.337-.142.347-.783.347-.868.002-.29-.076-.65-.695-1.561-.65-.958-.907-1.067-.868-1.389.07-.57.98-1.091 1.39-.868" data-color="2"></path>
            <path fill="#FFB6B6" d="M11.158 89.704c-.223 1.867.56 3.496 1.749 3.638 1.19.143 2.335-1.256 2.559-3.123.098-.817.003-1.589-.235-2.21l.85-7.924-3.731-.319-.441 7.845c-.378.548-.653 1.275-.75 2.093" data-color="1"></path>
            <path fill="#E6E6E6" d="M21.9 37.083s-1.932.027-3.213 2.523c-.68 1.327-5.104 25.104-5.104 25.104l-1.242 7.52.638 1.243a6.29 6.29 0 0 0-.764 5.247l-1.214 7.347 5.71.03 4.455-19.246 3.747-11.163z" data-color="4"></path>
            <path fill="#FFB6B6" d="M51.07 89.414c.223 1.867-.56 3.496-1.749 3.638-1.19.143-2.335-1.256-2.559-3.123-.098-.817-.003-1.589.235-2.21l-.85-7.924 3.731-.319.441 7.845c.378.548.653 1.276.75 2.093" data-color="1"></path>
            <path fill="#E6E6E6" d="M40.327 36.793s1.933.027 3.214 2.523c.68 1.327 5.104 25.104 5.104 25.104l1.242 7.52-.638 1.243a6.29 6.29 0 0 1 .764 5.247l1.214 7.347-5.71.031-4.455-19.247-3.746-11.163z" data-color="4"></path>
            <path fill="#2F2E41" d="M215.013 26.635c.237.388 1.495-1.03 3.427-1.187.492-.04 1.6 1.84 2.872 1.867.843.017 1.362.01 2.4 0 1.227-.013 1.563-.04 1.8-.34.459-.581.081-1.615.3-1.7.183-.072.657.568.899 1.36.51 1.663-1.319 3.98-1.499 6.122-.192 2.31 1.697-2.115 1.499 0-.221 2.381-1.016 2.201-1.007 3.062a.6.6 0 0 0 .108.34c.063.088.126.122 1.199.34 1.284.262 1.929.391 2.1.34.441-.13.888-.847 1.2-1.36.516-.84.15.006 0-1.02-.144-.994-.594-1.123-.6-2.042-.006-1.156.705-1.506 1.2-2.72.915-2.245.021-4.844-.3-5.783-.154-.45-.434-1.02-.924-1.961-.393-.756-.915-1.422-1.552-1.92a7.25 7.25 0 0 0-3.261-1.463 4.6 4.6 0 0 0-1.971.123l-1.672.455a5.2 5.2 0 0 0-1.95 1.021c-.544.002-1.016.401-1.203.981-.019.06-.037.096-.052.091-3.013-1.068-3.011 2.096-2.978 4.072.003.202-.003.381-.026.526v.01c-.06.392-.075.677-.009.786" data-color="2"></path>
            <path fill="#3F3D56" d="M175.841 44.107h-31.725v.58h31.725z" data-color="7"></path>
            <path fill="#3F3D56" d="M182.225 48.157a4.066 4.066 0 0 1-4.063-4.059 4.066 4.066 0 0 1 4.063-4.059 4.066 4.066 0 0 1 4.064 4.06 4.066 4.066 0 0 1-4.064 4.058m0-7.538a3.485 3.485 0 0 0-3.482 3.48 3.485 3.485 0 0 0 3.482 3.478 3.485 3.485 0 0 0 3.483-3.479 3.485 3.485 0 0 0-3.483-3.479" data-color="7"></path>
            <path fill="#6C63FF" d="M182.226 46.128a2.03 2.03 0 1 0 0-4.06 2.03 2.03 0 0 0-2.032 2.03c0 1.121.91 2.03 2.032 2.03" data-color="5"></path>
            <path fill="#3F3D56" d="M103.371 65.562H71.647v.58h31.724z" data-color="7"></path>
            <path fill="#3F3D56" d="M61.197 65.553a4.066 4.066 0 0 1 4.064-4.059 4.066 4.066 0 0 1 4.063 4.06 4.066 4.066 0 0 1-4.063 4.058 4.066 4.066 0 0 1-4.064-4.059m.58 0a3.485 3.485 0 0 0 3.484 3.48 3.485 3.485 0 0 0 3.482-3.48 3.485 3.485 0 0 0-3.482-3.479 3.485 3.485 0 0 0-3.483 3.48" data-color="7"></path>
            <path fill="#6C63FF" d="M65.261 67.583a2.03 2.03 0 1 0-2.032-2.03c0 1.121.91 2.03 2.032 2.03" data-color="5"></path>
        </g>
        <defs fill="none">
            <clipPath id="cf4bd2b4-ecf7-479b-a637-75cf756814aa_comp-lzazap1m">
                <path fill="#ffffff" d="M247 0v153H0V0z"></path>
            </clipPath>
        </defs>
    </g>
</svg>