<svg preserveAspectRatio="xMidYMid meet" data-bbox="0 0 144 157" xmlns="http://www.w3.org/2000/svg" viewBox="0 0 144 157" height="157" width="144" data-type="ugc" role="img" aria-label="undraw_digital_nomad_re_w8uy 2">
    <g>
        <g clip-path="url(#897acd40-7162-46cd-b0da-7f36be65d046_comp-lzazap2t)">
            <path fill="#3F3D56" d="M3.282 44.077c1.802-1.229 4.121 1.479 2.86 3.165-1.276 1.704-4.064 1.221-5.024-.519-1.225-2.22-.006-4.861 1.969-6.15 2.242-1.465 4.991-1.547 7.58-1.41 2.616.139 5.169.323 7.775-.051a26.2 26.2 0 0 0 6.412-1.793 27.24 27.24 0 0 0 10.772-8.134c1.33-1.681 2.572-3.57 3.332-5.583.586-1.55.864-3.588.034-5.105a2.6 2.6 0 0 0-1.793-1.336 2.62 2.62 0 0 0-2.171.542c-1.384 1.13-1.758 3.229-.7 4.691 1.136 1.57 3.278 2.107 5.123 1.821 2.563-.397 4.64-2.2 6.602-3.754L60.588 8.958c2.397-1.897 4.77-3.83 7.197-5.688 1.974-1.51 4.383-2.975 6.954-2.168 1.037.325 2.081 1.095 2.34 2.202a2.82 2.82 0 0 1-1.019 2.745 1.75 1.75 0 0 1-2.557-.32c-.542-.753-.587-1.827-.275-2.678C74.062.776 77.123.538 79.165.723a16.7 16.7 0 0 1 6.822 2.238c4.316 2.499 7.508 6.564 9.38 11.134 2.074 5.063 2.713 10.666 2.629 16.102-.018 1.108-.094 2.335-.72 3.29-.614.937-1.683 1.22-2.643.594-.312-.204-.714-.601-.632-1.02.102-.526 1.153-.53 1.575-.51 1.152.055 2.242.634 3.068 1.415 1.962 1.856 2.115 4.696 1.859 7.221-.281 2.772-1.082 5.53-.764 8.335.522 4.598 4.306 7.152 8.023 9.266 1.903 1.082 3.848 2.117 5.56 3.494a22.9 22.9 0 0 1 4.533 4.918 24.8 24.8 0 0 1 4.255 12.312 22.7 22.7 0 0 1-.518 6.567c-.489 2.106-1.259 4.76-3.288 5.89a2.73 2.73 0 0 1-3.103-.277c-.823-.658-1.224-1.825-.375-2.647.704-.681 1.83-.538 2.679-.26 1.022.333 1.818.955 2.58 1.69 1.453 1.4 3.153 3.119 5.363 2.672.408-.083.235-.706-.172-.623-2.668.54-4.277-2.55-6.244-3.74-1.424-.862-3.857-1.503-4.97.177-1.201 1.813.73 3.77 2.525 4.003 2.333.304 3.951-1.97 4.735-3.848 1.817-4.354 1.873-9.46.762-13.993a24.95 24.95 0 0 0-6.927-12.093c-1.722-1.636-3.697-2.891-5.758-4.059-2.079-1.179-4.247-2.31-6.026-3.928a9 9 0 0 1-3.057-6.946c.019-3.017.991-5.944.931-8.966-.05-2.506-.905-4.953-3.092-6.364a5 5 0 0 0-3.065-.853c-.442.037-1.063.11-1.428.387-.293.222-.349.743-.29 1.08.14.798.9 1.353 1.636 1.576a2.35 2.35 0 0 0 2.528-.744c.709-.816.954-1.903 1.055-2.95.136-1.418.06-2.875-.002-4.296-.255-5.774-1.4-11.686-4.41-16.701C91.62 6.003 87.64 2.429 82.869.848 80.62.103 77.953-.344 75.633.334c-1.996.583-3.526 2.22-3.196 4.39.279 1.836 2.187 3.106 3.869 1.947a3.35 3.35 0 0 0 1.427-2.396 3.33 3.33 0 0 0-.89-2.641C75.217-.063 72.566-.051 70.537.81c-1.221.52-2.303 1.298-3.346 2.106-1.33 1.031-2.641 2.086-3.96 3.13L47.339 18.624c-1.254.993-2.488 2.021-3.785 2.96-1.209.875-2.543 1.686-4.032 1.968-2.097.395-5.416-.643-5.162-3.294.099-1.03.783-2.166 1.829-2.461 1.025-.29 1.992.367 2.373 1.298.84 2.051-.146 4.397-1.127 6.198-2.43 4.459-6.262 8.09-10.752 10.452a26.2 26.2 0 0 1-7.15 2.53c-2.802.549-5.552.441-8.384.27-2.746-.166-5.63-.15-8.077 1.277-2.007 1.17-3.346 3.291-3.024 5.655.279 2.052 1.93 3.621 4.06 3.448 1.788-.146 3.584-1.668 2.95-3.6-.525-1.601-2.553-2.863-4.103-1.806-.343.233-.019.793.327.558"></path>
            <path fill="#F2F2F2" d="M140.591 90.707h-15.698a.92.92 0 0 0-.925.922v9.743a.924.924 0 0 0 .925.922h15.698a.924.924 0 0 0 .925-.922v-9.743a.926.926 0 0 0-.925-.922"></path>
            <path fill="#E6E6E6" d="M140.591 90.707h-15.698a.92.92 0 0 0-.925.922v9.743a.924.924 0 0 0 .925.922h15.698a.924.924 0 0 0 .925-.922v-9.743a.926.926 0 0 0-.925-.922m.304 6.999a3.8 3.8 0 0 1-1.096 2.648 3.8 3.8 0 0 1-2.643 1.127c-1.593.021.881.029-1.04.029-4.393 0-8.973-.042-10.682-.069a.86.86 0 0 1-.844-.855V91.63c0-.08.032-.157.088-.214a.3.3 0 0 1 .215-.09h15.698a.304.304 0 0 1 .304.303z"></path>
            <path fill="#E6E6E6" d="M138.659 85.097h-11.961a.51.51 0 0 0-.483.34l-1.847 5.166a.51.51 0 0 0 .482.683l16.041.028h.001a.514.514 0 0 0 .511-.466.5.5 0 0 0-.04-.247l-2.233-5.194a.51.51 0 0 0-.471-.31"></path>
            <path fill="#E6E6E6" d="M141.405 90.714a.5.5 0 0 1-.042.201l-2.233 3.999a.52.52 0 0 1-.472.31h-11.96a.51.51 0 0 1-.483-.34l-1.847-3.97a.52.52 0 0 1 .139-.551.5.5 0 0 1 .343-.132l1.959-.004.8-.001 10.524-.019.8-.001 1.958-.004h.001a.51.51 0 0 1 .513.512"></path>
            <path fill="#E6E6E6" d="M126.07 98.015c.237 0 3.494.199 3.494.435 0 .237-3.257.421-3.494.421a.429.429 0 1 1 0-.856"></path>
            <path fill="#F2F2F2" d="M137.914 81.955h-10.085a1.014 1.014 0 0 0-1.019 1.016v12.252h11.849a.5.5 0 0 0 .274-.08V82.972a1.015 1.015 0 0 0-1.019-1.016"></path>
            <path fill="#ffffff" d="M134.065 82.778h-5.527a.93.93 0 0 0-.929.925v11.52h10.524v-8.39a4.05 4.05 0 0 0-1.193-2.865 4.08 4.08 0 0 0-2.875-1.19"></path>
            <path fill="#E4E4E4" d="M136.341 94.2h-6.938a.226.226 0 1 0 0 .451h6.938a.227.227 0 0 0 .16-.385.23.23 0 0 0-.16-.066"></path>
            <path fill="#E4E4E4" d="M136.34 93.309h-6.938a.227.227 0 0 0-.16.385c.043.042.1.066.16.066h6.938a.23.23 0 0 0 .16-.066.22.22 0 0 0 .066-.16.22.22 0 0 0-.066-.16.23.23 0 0 0-.16-.065"></path>
            <path fill="#E4E4E4" d="M132.41 92.418h-3.007a.226.226 0 1 0 0 .45h3.007a.226.226 0 1 0 0-.45"></path>
            <path fill="#E4E4E4" d="M136.34 90.55h-6.938a.226.226 0 0 0-.159.386c.042.042.1.066.159.066h6.938a.227.227 0 0 0 .21-.312.22.22 0 0 0-.123-.122.2.2 0 0 0-.087-.017"></path>
            <path fill="#E4E4E4" d="M136.341 89.66h-6.938a.226.226 0 1 0 0 .45h6.938c.06 0 .117-.023.16-.065a.227.227 0 0 0 0-.32.23.23 0 0 0-.16-.065"></path>
            <path fill="#E4E4E4" d="M132.41 88.768h-3.008a.227.227 0 0 0-.16.385c.043.043.1.067.16.067h3.008a.227.227 0 0 0 .16-.385.23.23 0 0 0-.16-.067"></path>
            <path fill="#E4E4E4" d="M136.34 86.902h-6.938a.226.226 0 0 0-.159.384c.042.043.1.067.159.067h6.938a.225.225 0 0 0 .227-.226q0-.045-.017-.086a.22.22 0 0 0-.123-.123.2.2 0 0 0-.087-.017"></path>
            <path fill="#E4E4E4" d="M136.34 86.01h-6.938a.226.226 0 0 0-.159.385c.042.043.1.067.159.067h6.938a.225.225 0 0 0 .227-.226q0-.045-.017-.086a.22.22 0 0 0-.123-.123.2.2 0 0 0-.087-.017"></path>
            <path fill="#E4E4E4" d="M132.41 85.119h-3.008a.227.227 0 0 0-.16.385c.043.042.1.066.16.066h3.008a.22.22 0 0 0 .16-.066.2.2 0 0 0 .049-.073.23.23 0 0 0 0-.173.22.22 0 0 0-.209-.14"></path>
            <path fill="#FFB6B6" d="M57.693 42.87c3.697 0 6.695-2.988 6.695-6.674 0-3.685-2.998-6.673-6.695-6.673s-6.695 2.988-6.695 6.673 2.997 6.674 6.695 6.674"></path>
            <path fill="#2F2E41" d="M65.334 32.375c-.704-1.086-2.025-1.81-3.306-1.606a4.5 4.5 0 0 0-.987-2.217 4.53 4.53 0 0 0-6.58-.409 1.41 1.41 0 0 0-1.373-.137c-.441.2-.825.507-1.116.893a6.47 6.47 0 0 0-.909 6.59c-.157-.567.414-1.101.99-1.228.577-.128 1.181-.007 1.766-.09.749-.107 1.422-.54 2.172-.637.63-.082 1.265.079 1.88.24.614.162 1.247.327 1.878.252.632-.075 1.445 2.31 1.434 3.99-.002.32.064.728.376.796.385.083.607-.446.973-.59a.68.68 0 0 1 .83.44 1.1 1.1 0 0 1-.21.985 3.3 3.3 0 0 1-.79.684l.15.125c.25.33.77.344 1.132.14.345-.233.625-.551.812-.923.669-1.108 1.255-2.289 1.491-3.56.236-1.272.092-2.652-.613-3.738"></path>
            <path fill="#FFB6B6" d="M65.545 153.059H61.93l-1.72-13.902 5.336.001z"></path>
            <path fill="#2F2E41" d="M65.673 156.819H54.555v-.14c0-1.145.456-2.242 1.267-3.051a4.33 4.33 0 0 1 3.06-1.263l2.032-1.536 3.789 1.536h.97z"></path>
            <path fill="#FFB6B6" d="m72.065 146.696-2.836 2.234-9.998-9.842 4.186-3.298z"></path>
            <path fill="#2F2E41" d="m74.505 149.566-8.722 6.873-.088-.11a4.303 4.303 0 0 1 .711-6.059l.638-2.46 3.928-1.138.762-.6z"></path>
            <path fill="#2F2E41" d="m46.849 87.897-.221 4.056 1.074 1.293-.124 4.058 1.042 2.656.733 8.449 10.26 35.255 9.246-2.957-10.097-32.863 12.148-.303.41-18.53-2.152-4.149z"></path>
            <path fill="#2F2E41" d="m69.742 104.748 1.168 2.793-4.517 39.338-6.338.461-2.737-43.978z"></path>
            <path fill="#6C63FF" d="m63.53 46.777-2.08-2.871-6.72.268-.13 2.211-4.463 42.03 4.384-.098 5.441 1.266 10.467-3.651z"></path>
            <path fill="#3F3D56" d="M51.86 89.192H41.556l2.688-18.918 1.09-7.668s-.771-5.48-1.145-8.344a1.6 1.6 0 0 1 .154-.891q.184-.392.473-.713c1.254-1.44 4.073-2.69 5.841-3.374.91-.35 1.544-.551 1.544-.551l2.4-2.347c3.447 4.292-2.74 42.806-2.74 42.806"></path>
            <path fill="#3F3D56" d="m62.225 45.215 3.27 1.868s9.682 1.585 10.624 5.21l-3.564 10.724v22.54l-8.64 3.453s-7.454-36.413-1.69-43.795"></path>
            <path fill="#000000" d="m58.916 102.451-1.598 18.444 2.72 21.465" opacity=".4"></path>
            <path fill="#FFB6B6" d="M20.35 68.093a2.246 2.246 0 0 1 3.332.85l7.921-.893-1.877 3.68-7.235.284a2.26 2.26 0 0 1-2.818-1.012 2.24 2.24 0 0 1 .677-2.91"></path>
            <path fill="#3F3D56" d="m53.597 51.975 2.267 1.35-12.696 17.828-15.496 1.313-.617-4.41 11.417-3.415 5.643-10.904z"></path>
            <path fill="#FFB6B6" d="M99.801 66.586a2.246 2.246 0 0 0-3.332.85l-7.921-.893 1.877 3.68 7.235.284a2.26 2.26 0 0 0 2.818-1.012 2.24 2.24 0 0 0-.677-2.91"></path>
            <path fill="#3F3D56" d="m66.555 50.468-2.267 1.35 12.696 17.828 15.496 1.312.617-4.41-11.417-3.414-5.644-10.904z"></path>
            <path fill="#E6E6E6" d="M35.688 46.273v-.236h-3.962v-5.496h-.236v5.496h-4.541v-4.245q-.12.094-.236.193v4.052h-3a7 7 0 0 0-.095.236h3.095v4.619H22.87q.007.118.016.235h3.827v3.685h-2.867q.053.12.11.234h2.757v3.098h.235v-3.098h4.542v3.098h.236v-3.098h3.962v-.234h-3.962a3.67 3.67 0 0 1 1.082-2.606 3.7 3.7 0 0 1 2.614-1.079h.266v-.235h-3.962v-4.62zm-4.198 8.539h-4.541v-3.685h4.54zm0-3.92h-4.541v-.093a4.5 4.5 0 0 1 1.33-3.2 4.54 4.54 0 0 1 3.21-1.326z"></path>
            <path fill="#3F3D56" d="M70.116 13.661a.127.127 0 0 1-.165-.068l-.328-.79a.126.126 0 0 1 .165-.165q.047.021.068.069l.328.79a.125.125 0 0 1-.068.164"></path>
            <path fill="#3F3D56" d="m76.734 7.806-.98-2.359a1.48 1.48 0 0 0-1.368-.913c-.195 0-.388.038-.568.113l-5.014 2.068a1.48 1.48 0 0 0-.916 1.365c0 .194.039.386.113.565l5.373 12.943a1.48 1.48 0 0 0 1.37.913c.194 0 .387-.039.567-.113l5.014-2.068a1.48 1.48 0 0 0 .803-.8 1.47 1.47 0 0 0 0-1.13l-3.697-8.905a.09.09 0 0 0 .058-.086.1.1 0 0 0-.007-.035l-.626-1.507a.1.1 0 0 0-.05-.05.1.1 0 0 0-.072 0"></path>
            <path fill="#6C63FF" d="M75.467 5.576 80.832 18.5a1.1 1.1 0 0 1-.599 1.442l-5.038 2.079a1.11 1.11 0 0 1-1.447-.598L68.383 8.499a1.1 1.1 0 0 1 .6-1.442l.61-.252a.523.523 0 0 0 .476.52.5.5 0 0 0 .253-.038l2.872-1.185a.522.522 0 0 0 .172-.853l.655-.27a1.11 1.11 0 0 1 1.446.597"></path>
            <path fill="#3F3D56" d="M69.556 12.313a.127.127 0 0 1-.165-.068l-.328-.79a.125.125 0 0 1 .069-.165.127.127 0 0 1 .164.068l.328.79a.125.125 0 0 1-.068.165"></path>
            <path fill="#3F3D56" d="M68.896 10.788a.127.127 0 0 1-.165-.068l-.328-.79a.13.13 0 0 1 .027-.137.13.13 0 0 1 .138-.028.13.13 0 0 1 .069.069l.328.79a.125.125 0 0 1-.069.164"></path>
            <path fill="#ffffff" d="M70.743 6.487a.126.126 0 0 1 .068-.164l.793-.327a.127.127 0 0 1 .165.068.126.126 0 0 1-.068.164l-.793.327a.127.127 0 0 1-.165-.068"></path>
            <path fill="#ffffff" d="M72.096 6.055a.126.126 0 1 0 0-.252.126.126 0 0 0 0 .252"></path>
            <path fill="#6C63FF" d="m99.464 61.87-.048-.002a1.17 1.17 0 0 1-.937-.53 13.1 13.1 0 0 0-2.768-2.99c-.65-.518-1.33-.999-1.986-1.465-1.694-1.2-3.29-2.331-4.175-3.894-1.93-3.407.343-8.152 3.592-10.28 3.643-2.388 8.435-2.762 13.072-2.811q.721-.008 1.446-.008c8.353.003 16.689.763 24.904 2.27 2.732.503 5.591 1.118 7.889 2.612 2.285 1.484 3.673 3.822 3.538 5.956-.198 3.116-3.511 5.444-6.528 6.052-2.875.58-5.862.188-9.025-.227-.698-.091-1.42-.186-2.134-.268-7.757-.894-22.331 1.86-22.948 1.979l-.611.116-2.374 3.045a1.13 1.13 0 0 1-.907.445"></path>
            <path fill="#ffffff" d="M134.01 46.672h-32.79a.714.714 0 0 1-.713-.711.71.71 0 0 1 .713-.711h32.79a.716.716 0 0 1 .714.711.713.713 0 0 1-.714.711"></path>
            <path fill="#ffffff" d="M134.011 51.037h-32.79a.715.715 0 0 1-.713-.71.71.71 0 0 1 .712-.712h32.791a.712.712 0 0 1 0 1.422"></path>
            <path fill="#ffffff" d="M105.042 55.403h-3.821a.712.712 0 1 1 0-1.422h3.821a.712.712 0 1 1 0 1.422"></path>
            <path fill="#ffffff" d="M99.87 66.828a3.46 3.46 0 0 0 3.467-3.457 3.46 3.46 0 0 0-3.468-3.457 3.46 3.46 0 0 0-3.468 3.457 3.46 3.46 0 0 0 3.468 3.456"></path>
            <path fill="#3F3D56" d="M99.869 66.87a3.52 3.52 0 0 1-3.243-2.16 3.49 3.49 0 0 1 .76-3.814 3.51 3.51 0 0 1 3.826-.758 3.505 3.505 0 0 1 2.167 3.233 3.5 3.5 0 0 1-1.029 2.473 3.52 3.52 0 0 1-2.481 1.026"></path>
            <path fill="#ffffff" d="M99.609 64.752h-.022a.45.45 0 0 1-.337-.175l-.58-.742a.45.45 0 0 1 .08-.635l.021-.016a.455.455 0 0 1 .637.08.33.33 0 0 0 .501.023l1.177-1.238a.456.456 0 0 1 .641-.017l.02.018a.45.45 0 0 1 .017.64l-1.826 1.92a.45.45 0 0 1-.33.142"></path>
            <path fill="#3F3D56" d="M35.116 18.686 32.995 5.967a.98.98 0 0 1 .812-1.132l9.636-1.597a.99.99 0 0 1 1.136.81L46.7 16.764a.983.983 0 0 1-.812 1.133l-9.636 1.597a.99.99 0 0 1-1.136-.81"></path>
            <path fill="#ffffff" d="M35.214 14.722 33.85 6.545a.92.92 0 0 1 .76-1.06l8.282-1.373a.93.93 0 0 1 1.064.758l1.888 11.318a.92.92 0 0 1-.76 1.06l-5.13.85a4.13 4.13 0 0 1-3.07-.711 4.1 4.1 0 0 1-1.67-2.665"></path>
            <path fill="#6C63FF" d="M35.572 8.604a.9.9 0 0 1 .743-1.036l5.745-.952a.906.906 0 0 1 1.04.74.9.9 0 0 1-.744 1.037l-5.745.952a.907.907 0 0 1-1.04-.74"></path>
            <path fill="#6C63FF" d="M36.033 11.369a.9.9 0 0 1 .743-1.037l5.744-.952a.906.906 0 0 1 1.04.74.9.9 0 0 1-.743 1.037l-5.745.953a.907.907 0 0 1-1.04-.741"></path>
            <path fill="#6C63FF" d="M36.495 14.133a.9.9 0 0 1 .743-1.036l5.744-.952a.907.907 0 0 1 1.04.74.9.9 0 0 1-.743 1.037l-5.745.952a.907.907 0 0 1-1.04-.74"></path>
            <path fill="#F2F2F2" d="m85.461 148.032.153-3.423a11.1 11.1 0 0 1 5.173-1.306c-2.485 2.025-2.174 5.929-3.859 8.652a6.7 6.7 0 0 1-2.094 2.092 6.7 6.7 0 0 1-2.798.981l-2.079 1.269a11.11 11.11 0 0 1 2.356-9.03 10.8 10.8 0 0 1 1.985-1.838 30 30 0 0 0 1.163 2.603"></path>
            <path fill="#CCCCCC" d="M113.029 156.666a.33.33 0 0 1-.335.334h-90.29a.335.335 0 1 1 0-.669h90.29q.066 0 .128.025a.34.34 0 0 1 .207.31"></path>
            <path fill="#3F3D56" d="M22.622 66.37c-1.601-.032-10.202-.278-11.613-.217-.08-.279-2.754 3.137-2.819 3.158a.39.39 0 0 0 .13.626c.158.095 14.025-.16 14.193-.127a.39.39 0 0 0 .344-.224l.093-.207c.01-.354.125-2.163.021-2.472a.382.382 0 0 0-.349-.537"></path>
            <path fill="#000000" d="M22.95 69.38c-.082.194-.186.439-.437.43l-14.046.157a.39.39 0 0 1-.383-.376.4.4 0 0 1 .045-.19z" opacity=".17"></path>
            <path fill="#3F3D56" d="M11.075 66.11c-.151-.26-3.906-18.78-4.22-18.935l-2.563-3.127-.23-.172c-.318-.174-1.083-.056-1.014.43.603 2.878 4.477 19.271 4.561 21.827l.467 3.256a.4.4 0 0 0 .496.33.77.77 0 0 0 .622-.448c.035-.115 2.056-3.094 1.88-3.16"></path>
            <path fill="#000000" d="m4.291 44.048 4.903 25.224c-.164.413-.93.703-1.11.16-.003 0-5.03-25.111-5.035-25.126-.054-.605.948-.624 1.242-.258" opacity=".17"></path>
            <path fill="#6C63FF" d="m4.438 45.08 2.49 3.46 2.796 13.233-1.3 1.13z"></path>
            <path fill="#2F2E41" d="m21.015 68.154.688.028q.017-.302.1-.594c.104-.49.196-1.074-.233-1.072-.292-.028-.391.34-.443.74q-.02.454-.112.898"></path>
            <path fill="#2F2E41" d="m17.063 67.23.464.018.224.008c-.004-.245.11-.75-.168-.876a.4.4 0 0 0-.14-.028c-.262-.015-.34.183-.363.411-.015.138-.009.285-.013.399z"></path>
            <path fill="#2F2E41" d="m15.686 67.175.467.019.222.009c-.004-.282.145-.898-.308-.907-.42-.023-.366.508-.376.81z"></path>
            <path fill="#2F2E41" d="m14.31 67.12.465.018.225.009c-.005-.28.144-.896-.31-.904-.418-.026-.364.505-.375.809z"></path>
            <path fill="#2F2E41" d="m12.935 67.065.466.02.223.008c-.005-.282.144-.896-.31-.907-.418-.023-.364.508-.375.81z"></path>
            <path fill="#2F2E41" d="m11.56 67.011.464.017.225.009c-.005-.259.12-.799-.212-.892h-.002a.3.3 0 0 0-.095-.012.3.3 0 0 0-.117.01h-.002c-.29.076-.248.528-.257.8z"></path>
            <path fill="#2F2E41" d="m19.626 66.865.689.028.002-.087q.025-.245.009-.492c-.024-.181-.102-.323-.32-.328-.223-.013-.311.13-.346.313a1 1 0 0 0-.017.094v.002c-.017.168-.006.35-.017.47"></path>
            <path fill="#2F2E41" d="m18.25 66.809.69.028q.021-.277.012-.556c-.02-.19-.095-.344-.322-.349-.229-.015-.317.14-.352.332-.032.185-.015.407-.028.545"></path>
            <path fill="#2F2E41" d="m16.874 66.755.205.008.484.02c-.002-.103.017-.254.02-.403a1 1 0 0 0-.005-.133c-.017-.2-.088-.366-.324-.37-.24-.013-.324.152-.354.355-.03.18-.013.39-.026.523"></path>
            <path fill="#2F2E41" d="m19.639 68.1.689.026c-.002-.28.145-.895-.31-.904-.453-.028-.353.596-.38.878"></path>
            <path fill="#2F2E41" d="m18.263 68.044.689.028c-.003-.282.144-.897-.31-.906-.453-.026-.353.599-.38.878"></path>
            <path fill="#2F2E41" d="m16.888 67.99.689.026c-.003-.2.073-.57-.05-.768a.28.28 0 0 0-.26-.136.3.3 0 0 0-.2.05c-.22.144-.158.6-.18.829"></path>
            <path fill="#2F2E41" d="m15.512 67.935.688.028c-.002-.2.072-.569-.047-.769a.28.28 0 0 0-.261-.138.3.3 0 0 0-.201.05c-.22.148-.158.603-.18.829"></path>
            <path fill="#2F2E41" d="m14.136 67.88.689.027c-.002-.2.073-.57-.05-.769a.28.28 0 0 0-.26-.136.3.3 0 0 0-.2.05c-.22.144-.158.6-.18.829"></path>
            <path fill="#2F2E41" d="m12.76 67.825.689.028c-.002-.2.071-.569-.047-.769a.28.28 0 0 0-.262-.138.3.3 0 0 0-.2.05c-.221.149-.158.603-.18.829"></path>
            <path fill="#2F2E41" d="m11.384 67.771.689.026c-.002-.2.071-.569-.05-.769a.28.28 0 0 0-.26-.135.3.3 0 0 0-.2.05c-.22.146-.158.6-.18.828"></path>
        </g>
        <defs fill="none">
            <clipPath id="897acd40-7162-46cd-b0da-7f36be65d046_comp-lzazap2t">
                <path fill="#ffffff" d="M144 0v157H0V0z"></path>
            </clipPath>
        </defs>
    </g>
</svg>