<svg preserveAspectRatio="xMidYMid meet" data-bbox="0 0 200 30" xmlns="http://www.w3.org/2000/svg" viewBox="0 0 200 30" height="30" width="200" data-type="color" role="img" aria-label="Layer_1"><defs><style>#comp-lze14ydq_r_comp-lzaza9v2 svg [data-color="1"] {fill: #120032;}</style></defs>
    <g>
        <g clip-path="url(#5b16e0be-7f37-44ab-adb2-24636bff25fd_comp-lze14ydq_r_comp-lzaza9v2)">
            <path fill="#120032" d="M27.059 11.13c0 7.54-5.017 10.738-11.584 10.738H8.557v7.736H0V.396h14.695c8.903 0 12.364 5.485 12.364 10.734M13.8 15.356c2.681 0 4.508-.908 4.508-4.222 0-2.922-1.827-4.221-4.508-4.221H8.552v8.447h5.249z" data-color="1"></path>
            <path fill="#120032" d="M37.526 29.604h-8.36V0h8.36z" data-color="1"></path>
            <path fill="#120032" d="M52.032 29.996c-6.997 0-11.856-4.462-11.856-10.539 0-5.485 4.469-10.974 11.43-10.974 6.962 0 11.352 4.698 10.962 11.486H48.496c0 2.922 1.945 4.026 4.158 4.026 1.673 0 3.19-.908 3.807-2.171l6.142 2.682c-1.708 3.394-5.713 5.485-10.571 5.485zm3.732-12.193c0-1.264-1.051-3.079-3.575-3.079s-3.575 1.815-3.575 3.078h7.155z" data-color="1"></path>
            <path fill="#120032" d="M75.87 20.645h-1.397c.43 1.935.079 3.118-2.642 8.96H62.85l5.288-10.343-4.82-10.183h8.592c2.642 5.485 2.993 6.989 2.568 8.764h1.397c-.43-1.815 0-3.274 2.37-8.764h8.592l-4.74 9.987 5.638 10.538H78.64c-2.84-5.76-3.15-7.024-2.76-8.959z" data-color="1"></path>
            <path fill="#120032" d="M111.836 9.08v20.524h-7.224c-1.052 0-1.135-.28-1.135-.787 0-1.34 3.111-3.283 3.111-8.016h-.934c0 2.847-2.567 9.199-8.784 9.199-6.72 0-8.898-5.845-8.898-10.894 0-5.845 3.075-10.156 7.58-10.574.24-.031.486-.04.735-.04h1.595c2.3 0 4.162 1.89 4.162 4.226v.494c0 .049 0 .098-.017.146-.066.592-.609 1.055-1.166 1.055s-.596-.076-1.148-.151c-.552-.076-1.134-.116-1.875.418-.74.534-1.511 1.628-1.511 3.527 0 3.074 1.319 4.965 3.303 4.965 2.099 0 3.847-2.402 3.847-6.588v-7.5h8.359z" data-color="1"></path>
            <path fill="#4D00FF" d="M128.778 16.183c-3.5 0-4.78 1.58-4.78 5.21V29.6h-8.359V9.08h7.076c1.012 0 1.204.275 1.204.59 0 1.304-3.15 3.63-3.15 8.804h.934c0-3.67 2.567-9.79 8.201-9.79 1.126 0 2.603.08 3.225.195v8.012s-1.906-.712-4.355-.712z" data-color="2"></path>
            <path fill="#4D00FF" d="M134.558 19.222c0-5.961 4.315-10.734 11.623-10.734s11.702 4.777 11.702 10.734-4.236 10.774-11.702 10.774-11.623-4.814-11.623-10.774m11.663 4.381c2.059 0 3.189-1.7 3.189-4.382s-1.126-4.341-3.189-4.341-3.19 1.735-3.19 4.341c0 2.607 1.165 4.382 3.19 4.382" data-color="2"></path>
            <path fill="#4D00FF" d="m193.625 9-2.177 7.695c-7.532-1.82-2.169 10.049-1.946 12.162 0 .551-.153 1.063-1.125 1.063h-6.064c-2.568 0-6.958-5.33-6.568-12.153h-.889c-2.576 14.586 6.734 11.962-11.12 12.153l-5.441-20.836h7.847L169.8 22.74h1.003c-1.862-6.24-.613-13.696 7.159-13.656l3.847 13.656h1.012c-3.347-8.367 1.043-16.134 10.804-13.74" data-color="2"></path>
            <path fill="#FF5252" d="M200 25.952c0 2.229-1.778 4.04-3.978 4.04-2.199 0-3.978-1.807-3.978-4.04s1.779-4.04 3.978-4.04S200 23.72 200 25.953" data-color="3"></path>
        </g>
        <defs fill="none">
            <clipPath id="5b16e0be-7f37-44ab-adb2-24636bff25fd_comp-lze14ydq_r_comp-lzaza9v2">
                <path fill="#ffffff" d="M200 0v30H0V0z"></path>
            </clipPath>
        </defs>
    </g>
</svg>